<svg xmlns="http://www.w3.org/2000/svg" xmlns:xlink="http://www.w3.org/1999/xlink" version="1.1" x="0px" y="0px" viewBox="0 0 64 80" enable-background="new 0 0 64 64" xml:space="preserve"><g><path d="M28.6,13.674H0l4.102,43.148H24.5l3.03-31.885l0,0L28.6,13.674z M26.394,15.68l-0.879,9.258H3.087l-0.88-9.258H26.394z"/><path d="M62.658,15.424L64,13.93l-7.531-6.752l-9.998,13.205h-14.56v1.002c0,1.191,0.152,2.381,0.445,3.553h-0.072l0.465,1.334   l0.234,0.674h0.031c2.133,5.281,7.1,8.883,12.758,9.266v18.604H40.43v2.008h12.691v-2.008h-5.342V36.211   c5.658-0.383,10.625-3.984,12.76-9.266h0.029l0.234-0.674l0.465-1.334h-0.072c0.293-1.172,0.445-2.361,0.445-3.553v-1.002H48.988   l7.766-10.254L62.658,15.424z M33.957,22.389h10.992l-1.928,2.549H34.43C34.186,24.098,34.027,23.244,33.957,22.389z    M59.594,22.389c-0.07,0.855-0.227,1.709-0.471,2.549H45.537l1.93-2.549H59.594z"/></g><text x="0" y="79" fill="#000000" font-size="5px" font-weight="bold" font-family="'Helvetica Neue', Helvetica, Arial-Unicode, Arial, Sans-serif">Created by Creative Stall</text><text x="0" y="84" fill="#000000" font-size="5px" font-weight="bold" font-family="'Helvetica Neue', Helvetica, Arial-Unicode, Arial, Sans-serif">from the Noun Project</text></svg>